HIERARCHY
ROOT hip
{
	OFFSET 0.000000 0.000000 0.000000 
	CHANNELS 6 Xposition Yposition Zposition Xrotation Zrotation Yrotation
	JOINT abdomen
	{
		OFFSET 0.000000 3.402643 0.000000 
		CHANNELS 3 Xrotation Zrotation Yrotation
		JOINT chest
		{
			OFFSET 0.000000 8.438565 -0.680529 
			CHANNELS 3 Xrotation Zrotation Yrotation
			JOINT neck
			{
				OFFSET 0.000000 10.207942 -0.272212 
				CHANNELS 3 Xrotation Zrotation Yrotation
				JOINT head
				{
					OFFSET 0.000000 3.130431 0.000000 
					CHANNELS 3 Xrotation Zrotation Yrotation
					End Site
					{
						OFFSET 0.000000 3.130435 0.000000 
					}
				}
			}
			JOINT lCollar
			{
				OFFSET 3.470700 6.669187 -0.816635 
				CHANNELS 3 Yrotation Zrotation Xrotation
				JOINT lShldr
				{
					OFFSET 3.198488 0.000000 0.000000 
					CHANNELS 3 Zrotation Yrotation Xrotation
					JOINT lForeArm
					{
						OFFSET 10.139888 0.000000 0.000000 
						CHANNELS 3 Yrotation Zrotation Xrotation
						JOINT lHand
						{
							OFFSET 8.370511 0.000000 0.000000 
							CHANNELS 3 Zrotation Yrotation Xrotation
							End Site
							{
								OFFSET 4.083176 0.000000 0.000000 
							}
						}
					}
				}
			}
			JOINT rCollar
			{
				OFFSET -3.470700 6.669187 -0.816635 
				CHANNELS 3 Yrotation Zrotation Xrotation
				JOINT rShldr
				{
					OFFSET -3.198488 0.000000 0.000000 
					CHANNELS 3 Zrotation Yrotation Xrotation
					JOINT rForeArm
					{
						OFFSET -10.139888 0.000000 0.000000 
						CHANNELS 3 Yrotation Zrotation Xrotation
						JOINT rHand
						{
							OFFSET -8.370511 0.000000 0.000000 
							CHANNELS 3 Zrotation Yrotation Xrotation
							End Site
							{
								OFFSET -4.083176 0.000000 0.000000 
							}
						}
					}
				}
			}
		}
	}
	JOINT lThigh
	{
		OFFSET 5.308129 -1.633274 1.361059 
		CHANNELS 3 Xrotation Zrotation Yrotation
		JOINT lShin
		{
			OFFSET -2.041588 -20.007561 0.000000 
			CHANNELS 3 Xrotation Zrotation Yrotation
			JOINT lFoot
			{
				OFFSET 0.000000 -19.190928 -1.224953 
				CHANNELS 3 Xrotation Yrotation Zrotation
				End Site
				{
					OFFSET 0.000000 -2.449906 4.627600 
				}
			}
		}
	}
	JOINT rThigh
	{
		OFFSET -5.308129 -1.633274 1.361059 
		CHANNELS 3 Xrotation Zrotation Yrotation
		JOINT rShin
		{
			OFFSET 2.041588 -20.007561 0.000000 
			CHANNELS 3 Xrotation Zrotation Yrotation
			JOINT rFoot
			{
				OFFSET 0.000000 -19.190928 -1.224953 
				CHANNELS 3 Xrotation Yrotation Zrotation
				End Site
				{
					OFFSET 0.000000 -2.449906 4.627600 
				}
			}
		}
	}
}
MOTION
Frames: 11
Frame Time: 0.033333
20.367483 37.445442 14.450896 -3.876953 2.636719 -42.363056 23.593750 4.248047 -4.091797 -14.589844 5.722657 -5.664063 -30.039063 -12.001953 10.468750 23.818359 -1.074219 6.074239 22.724609 -6.142578 -0.077080 -24.726564 -31.728514 -17.050777 -114.492188 -1.074219 -54.609280 14.091797 27.441406 5.775987 -8.886719 7.128907 -0.136719 43.212891 -9.082031 19.139084 125.107430 1.748047 -34.590145 -4.453125 -0.097656 -0.205095 -50.988605 37.074703 0.747083 55.627861 -0.063034 -3.173096 10.255306 -16.259584 -9.256006 -12.273259 -45.260002 2.603064 62.790115 -1.618864 2.933668 -9.306986 -22.729219 7.842561 
20.600811 37.034992 16.249207 -2.646484 1.748047 -34.462894 23.222656 4.726563 -4.510913 -15.810546 5.546875 -6.346712 -29.296873 -5.654297 13.797866 24.521484 -0.898438 11.328126 20.966797 -6.074219 -0.106389 -45.888672 -26.699219 7.183115 -124.160164 -0.976563 -61.191406 8.574219 22.861328 2.552622 -10.439453 7.890625 -0.156250 44.921875 -6.640625 17.597656 130.996094 1.542969 -36.640625 0.322266 -3.242188 -0.234927 -58.034267 31.209812 -6.462732 60.548397 0.082652 -2.986596 8.220062 -16.679453 -9.921212 -0.723199 -43.142525 -2.797126 60.352085 -1.587780 2.825626 -4.017339 -25.659138 9.814638 
20.511950 37.126999 18.199734 -1.757813 0.351563 -23.554667 22.402342 4.101563 -2.861328 -15.107422 3.789063 -4.433594 -28.613281 2.578125 16.367626 22.939453 -0.556641 16.474539 20.888672 -7.968750 -0.145130 -59.052738 -14.599609 28.564453 -127.695320 -0.722656 -70.117188 5.898438 21.962893 1.409904 -11.474609 7.919922 -0.185547 45.449219 0.917969 15.908362 135.849609 1.630859 -33.076172 4.384765 -4.443359 -0.566406 -61.855293 22.273598 -11.783757 63.813862 1.064701 -3.780018 6.005568 -16.281607 -10.344944 11.707862 -37.703266 -8.562673 57.741360 -1.011651 2.883969 3.289814 -25.754696 13.252305 
20.273232 37.207993 19.809990 -0.878906 -0.361328 -8.964845 21.767578 1.240234 0.371305 -15.449221 0.976563 -0.390625 -28.583986 8.427735 17.314453 22.919920 1.376953 19.287111 19.404299 -9.570313 -0.125329 -55.957031 -2.167969 34.775391 -127.255867 -0.449219 -78.310547 4.072266 19.912109 0.722656 -11.679688 7.031250 -0.166016 40.664059 9.707031 8.232422 138.789063 1.757813 -33.876953 8.447266 -5.068359 -1.074219 -65.732491 11.777912 -16.645416 65.610565 0.350390 -4.137002 5.866422 -18.511698 -10.171023 23.177753 -29.547132 -16.449415 55.278400 -1.255246 2.671573 7.275549 -21.331593 14.656254 
19.889032 36.986912 20.919783 -0.175781 -0.537109 6.503917 22.138672 -1.552734 4.726562 -16.132813 -4.296875 4.531250 -26.513672 11.220703 16.826172 23.251953 4.013672 19.990917 18.652344 -7.285156 -0.107422 -51.425777 -0.419922 27.871021 -123.574211 -0.458984 -81.386642 7.480468 21.005857 2.080078 -10.146485 5.371094 -0.126953 27.021484 16.943357 -9.870200 135.654297 1.542969 -40.673828 13.935548 -5.605469 -1.670876 -68.542023 0.869707 -17.180439 66.138817 0.156112 -4.264370 7.065755 -20.445623 -9.449007 29.041780 -19.843761 -23.941954 57.378670 -1.132666 2.807124 6.424077 -12.954176 13.622693 
19.433052 36.353546 21.643240 -0.175781 -0.361328 17.929689 24.511721 -1.845703 9.921561 -16.455078 -11.328125 9.794923 -21.787107 13.339845 16.896786 25.712889 4.033203 20.439451 19.433596 -5.068360 -0.067497 -49.736328 -1.328125 20.214617 -123.437500 -0.498047 -84.560547 6.845703 16.845701 1.425781 -10.878907 3.066406 -0.136719 5.390625 27.001955 -27.983845 117.958977 1.513672 -28.945314 7.812500 -7.656250 -1.378254 -71.131165 -4.570145 -12.592568 67.711945 0.331841 -4.415037 9.055851 -22.462751 -8.576385 29.640549 -13.545239 -29.008947 61.082977 -0.976622 2.672258 3.077961 -10.068244 12.750504 
19.153442 35.948456 22.616199 -0.537109 0.351563 23.027372 26.093750 -2.285156 14.345704 -15.039063 -14.843750 13.981874 -15.976563 16.191408 17.639442 26.953125 2.646484 21.103966 19.609375 -4.902344 -0.117187 -49.531250 4.570313 17.685547 -128.574234 -0.361328 -86.992188 -1.943359 14.785155 -1.081492 -13.710938 0.761719 -0.185676 -20.527344 39.462894 -42.308243 67.695313 0.947266 33.212891 -16.064453 -1.406250 0.224370 -71.390610 -4.559408 -7.240453 69.474510 0.331525 -4.329435 9.608093 -24.815577 -7.898406 30.168024 -11.104375 -32.695992 59.156200 -0.721149 2.920475 -1.906733 -21.733425 10.506343 
18.914272 35.965084 23.809904 -0.361328 0.703125 27.421873 26.386721 -3.876954 15.565745 -15.039063 -14.667970 15.915497 -16.494141 18.886719 15.178943 26.064453 3.339844 19.199217 19.765625 -5.292969 -0.146485 -51.601563 11.123048 21.025389 -133.066406 -0.566406 -83.300690 -1.787109 16.015625 -1.071523 -12.822266 2.167969 -0.058963 -36.386715 41.582031 -55.247425 34.951172 -0.019531 66.972656 0.517578 -5.869132 -0.430684 -70.962616 -4.228071 -4.135522 70.520981 0.507362 -4.436736 9.372074 -24.427700 -7.606005 32.350952 -8.340727 -38.661530 52.511913 -0.195546 2.719315 -11.761773 -34.002270 4.405610 
18.517496 35.971596 24.582005 0.703125 -0.712891 31.630739 25.937498 -3.261719 13.906252 -14.853515 -14.843750 13.981874 -20.976561 16.455078 12.610188 25.185547 4.384766 17.119886 19.199217 -6.562500 -0.117187 -56.308594 7.783204 23.808594 -131.953125 -0.439453 -82.958908 4.218750 17.450968 0.725561 -15.117189 1.494141 -0.156250 -30.800779 46.083984 -57.522263 47.988281 0.849609 30.302734 0.039063 -11.142578 -0.595703 -72.484886 -4.394237 -3.086403 71.046951 0.673291 -4.348719 10.234502 -24.494511 -7.440605 31.612526 -5.648719 -42.724113 51.258972 -0.723020 2.423197 -10.491743 -35.715343 5.251584 
18.382465 36.294682 25.164595 1.230469 -1.064453 29.355286 25.361330 -3.564453 10.917360 -15.390624 -14.140625 11.179255 -21.699219 13.398438 11.357420 23.955076 4.023438 14.863280 18.447266 -8.007812 -0.097656 -58.652344 -1.250000 24.199215 -127.773445 -0.292969 -85.966797 8.886719 16.572266 1.975442 -13.886718 -1.240234 -0.126742 -11.347656 56.425781 -55.673828 58.222656 1.201172 21.279095 -2.666016 -7.470703 0.000000 -72.327278 -1.582007 -2.020213 71.580635 0.526920 -4.311500 8.871935 -23.001637 -8.408017 30.148243 -9.006040 -40.462090 53.013710 -0.877349 2.417384 -3.360642 -31.904299 9.696662 
18.459419 36.888950 25.693596 0.703125 -1.240234 21.621096 25.097656 -4.335938 8.348870 -15.400392 -11.855470 9.072267 -23.408203 10.371094 7.626952 20.449219 4.179688 10.586650 17.207031 -8.671876 -0.058594 -57.167965 -9.169923 24.920317 -126.074211 -0.791016 -72.451035 10.830078 17.314453 2.659156 -10.908203 -0.693359 -0.136719 20.566406 61.269527 -34.796127 72.138672 1.318359 8.710938 -4.970703 -6.054688 0.184518 -69.437790 3.134406 -2.022296 72.444977 1.623637 -3.726976 4.986178 -18.420361 -10.686834 29.455881 -14.082386 -34.628639 53.187668 -0.732542 2.841524 1.964328 -26.370237 12.863214 
